<svg viewBox="0 0 64 64" xmlns="http://www.w3.org/2000/svg"><path d="m62 37.6-60 2v-16.1c0-2.6 2.1-4.7 4.7-4.7h50.6c2.6 0 4.7 2.1 4.7 4.7z" fill="#c5d0d8"/><path d="m60.1 39.5h-56.2v-14c0-2.6 2.1-4.7 4.7-4.7h46.9c2.6 0 4.7 2.1 4.7 4.7z" fill="#3e4347"/><path d="m2 38.7v11.5h60v-13.6h-40.3z" fill="#c5d0d8"/><path d="m2 50.2h60v6.3h-60z" fill="#428bc1"/><path d="m2 46.2h60v2h-60z" fill="#fff"/><path d="m49.6 46.2c-4.6 0-8.3 3.8-8.3 8.4 0 .6.1 1.2.2 1.8h16.2c.1-.6.2-1.2.2-1.8 0-4.6-3.7-8.4-8.3-8.4m-31.1 0c-4.6 0-8.3 3.8-8.3 8.4 0 .6.1 1.2.2 1.8h16.2c.1-.6.2-1.2.2-1.8 0-4.6-3.7-8.4-8.3-8.4" fill="#63686b"/><path d="m49.6 47.3c-4 0-7.2 3.3-7.2 7.3 0 4.1 3.2 7.3 7.2 7.3s7.2-3.3 7.2-7.3-3.2-7.3-7.2-7.3" fill="#3e4347"/><ellipse cx="49.6" cy="54.6" fill="#94989b" rx="3.6" ry="3.7"/><path d="m18.5 47.3c-4 0-7.2 3.3-7.2 7.3 0 4.1 3.2 7.3 7.2 7.3s7.2-3.3 7.2-7.3c.1-4-3.1-7.3-7.2-7.3" fill="#3e4347"/><path d="m18.5 51c-2 0-3.6 1.6-3.6 3.7 0 2 1.6 3.7 3.6 3.7s3.6-1.6 3.6-3.7c.1-2.1-1.6-3.7-3.6-3.7" fill="#94989b"/><path d="m8.4 39.6h-6.4v5.8l6.4-1.2z" fill="#3e4347"/><path d="m5.1 42.5c0 1.3-.8 2.3-1.9 2.3-.8 0-.8 0-.8-2.3 0-2.4 0-2.4.8-2.4 1 0 1.9 1.1 1.9 2.4m2.9-.4c0 1.1-.7 2-1.6 2-.7 0-.7 0-.7-2s0-2 .7-2c.8 0 1.6.9 1.6 2" fill="#fff"/><path d="m2 52.2h4.8v2h-4.8z" fill="#3e4347"/><path d="m16.5 20.3h1.9v17.8h-1.9z" fill="#c5d0d8"/><path d="m15.6 20.8h.9v7.1h-.9zm2.8 0h.9v7.1h-.9z" fill="#3e4347"/><path d="m31.1 20.1h1.9v17.8h-1.9z" fill="#c5d0d8"/><path d="m30.1 20.8h.9v7.1h-.9zm2.8 0h.9v7.1h-.9z" fill="#3e4347"/><path d="m45.6 20.1h1.9v17.8h-1.9z" fill="#c5d0d8"/><path d="m62 45.6h-2.3v-2.8l2.3-.1z" fill="#f15744"/><path d="m59.7 39.9 2.3-1v3.9h-2.3z" fill="#ffd45c"/></svg>